# xmcd CD database file
#
# Track frame offsets:
#	150
#	19520
#	37675
#	55022
#	72780
#	98737
#	113192
#	129530
#	151285
#	169375
#	190535
#	208505
#	230305
#	245827
#	266457
#
# Disc length: 3797 seconds
#
# Revision: 0
# Processed by: cddbd v1.5.1PL0 Copyright (c) Steve Scherf et al.
# Submitted via: CDex 1.51
#
DISCID=bc0ed30f
DTITLE=オムニバス - と1980 DISC 2
DYEAR=1900
DGENRE=JPop
TTITLE0=ルビーの指環／寺尾 聰
TTITLE1=君に，クラクラ。／ＳＫＹ
TTITLE2=ロンリー・ハート（ジャパニーズ・ヴァージョン）／クリエーション
TTITLE3=探偵物語（東芝ＥＭＩヴァージョン）／薬師丸 ひろ子
TTITLE4=愛をよろしく／鈴木 康博
TTITLE5=君たちキウイ・パパイア・マンゴーだね／中原 めいこ
TTITLE6=マイ・クラシック／佐藤 隆
TTITLE7=つ・き・あ・い・た・い／ＲＣサクセション
TTITLE8=夏の愛人／山本 達彦
TTITLE9=渚・モデラート／高中 正義
TTITLE10=１９８６年のマリリン／本田 美奈子
TTITLE11=Ｂｅａｔ　Ｏｆ　Ｍｅｔａｌ　Ｍｏｔｉｏｎ／ＶＯＷ　ＷＯＷ
TTITLE12=警告　ＷＡＲＮＩＮＧ／ラフィン ノーズ
TTITLE13=スカイ・ラブ／村田 和人
TTITLE14=私は嵐／ＳＨＯＷ−ＹＡ
EXTD=
EXTT0=
EXTT1=
EXTT2=
EXTT3=
EXTT4=
EXTT5=
EXTT6=
EXTT7=
EXTT8=
EXTT9=
EXTT10=
EXTT11=
EXTT12=
EXTT13=
EXTT14=
PLAYORDER=
